<svg width="33" height="33" viewBox="0 0 33 33" fill="none" xmlns="http://www.w3.org/2000/svg">
<path d="M24.1621 20.2617C26.2741 20.6163 28.6021 20.2463 30.2362 19.1517C32.41 17.7025 32.41 15.3283 30.2362 13.8792C28.5866 12.7846 26.2279 12.4146 24.1158 12.7846M8.79164 20.2617C6.67955 20.6163 4.35164 20.2463 2.71747 19.1517C0.543721 17.7025 0.543721 15.3283 2.71747 13.8792C4.36705 12.7846 6.7258 12.4146 8.83789 12.7846M25.75 9.03834C25.6529 9.02292 25.5541 9.02292 25.4571 9.03834C24.4282 9.00114 23.4541 8.56537 22.7406 7.82314C22.0272 7.08091 21.6302 6.09037 21.6337 5.06084C21.6337 2.85626 23.4066 1.08334 25.6112 1.08334C26.6661 1.08334 27.6778 1.5024 28.4237 2.24833C29.1697 2.99425 29.5887 4.00594 29.5887 5.06084C29.5859 6.0911 29.1848 7.08036 28.4693 7.82168C27.7539 8.563 26.7795 8.99895 25.75 9.03834V9.03834ZM7.20372 9.03834C7.29622 9.02293 7.40414 9.02293 7.49664 9.03834C8.52549 9.00114 9.49958 8.56537 10.213 7.82314C10.9265 7.08091 11.3234 6.09037 11.32 5.06084C11.32 2.85626 9.54705 1.08334 7.34247 1.08334C6.28757 1.08334 5.27588 1.5024 4.52995 2.24833C3.78403 2.99425 3.36497 4.00594 3.36497 5.06084C3.38039 7.21918 5.07622 8.96126 7.20372 9.03834ZM16.5 20.5546C16.4029 20.5392 16.3041 20.5392 16.2071 20.5546C15.1782 20.5174 14.2041 20.0816 13.4906 19.3394C12.7772 18.5972 12.3802 17.6066 12.3837 16.5771C12.3837 14.3725 14.1566 12.5996 16.3612 12.5996C17.4161 12.5996 18.4278 13.0186 19.1737 13.7646C19.9197 14.5105 20.3387 15.5222 20.3387 16.5771C20.3233 18.7354 18.6275 20.4929 16.5 20.5546ZM12.0137 25.4108C9.83997 26.86 9.83997 29.2342 12.0137 30.6833C14.4804 32.3329 18.5196 32.3329 20.9862 30.6833C23.16 29.2342 23.16 26.86 20.9862 25.4108C18.535 23.7767 14.4804 23.7767 12.0137 25.4108Z" stroke="#212121" stroke-width="1.5" stroke-linecap="round" stroke-linejoin="round"/>
</svg>
